# xmcd
#
# Track frame offsets:
#  150
#  8325
#  21525
#  38250
#  57300
#  76950
#  91575
#  102300
#  120150
#  129675
#  140025
#  154425
#  177000
#  201975
#  210675
#  236520
#
# Disc length: 3686 seconds
#
# Revision: 0
# Processed by: cddbd v1.4PL0 Copyright (c) Steve Scherf et al.
# Submitted via: AltoMP3_Maker 3.0
#
DISCID=ca0e6410
DTITLE=Odjila - Najbolje od Odjila
DYEAR=1900
DGENRE=
TTITLE0=Ciganocka (Cigancicu)
TTITLE1=Sosnica (Borova suma)
TTITLE2=Terdi satra (razapeta cerga)
TTITLE3=Solnisko (Sunasce)
TTITLE4=Imarme (Bolujem)
TTITLE5=Habarka - N: Zencuzni
TTITLE6=Kumuska (Kumica)
TTITLE7=Progeja (Prolazim)
TTITLE8=Jehal Cigan (Jase Cigan)
TTITLE9=Gori ljubav Ciganke
TTITLE10=Zdrales (Moc ljubavi)
TTITLE11=Prihajape (Gladan sam te)
TTITLE12=Zageja (Dolazim ti)
TTITLE13=Lolo gad (Crvena kosulja)
TTITLE14=Devleski rat (Bozanska noc)
TTITLE15=Pasija pre car (Rosna trava)
EXTD=
EXTT0=
EXTT1=
EXTT2=
EXTT3=
EXTT4=
EXTT5=
EXTT6=
EXTT7=
EXTT8=
EXTT9=
EXTT10=
EXTT11=
EXTT12=
EXTT13=
EXTT14=
EXTT15=
PLAYORDER=
